<?xml version="1.0" encoding="UTF-8" standalone="no"?>
<svg
   width="40"
   height="40"
   viewBox="0 0 40 40"
   version="1.1"
   id="svg8"
   sodipodi:docname="playground-icon-red.svg"
   inkscape:version="1.4 (e7c3feb100, 2024-10-09)"
   xmlns:inkscape="http://www.inkscape.org/namespaces/inkscape"
   xmlns:sodipodi="http://sodipodi.sourceforge.net/DTD/sodipodi-0.dtd"
   xmlns="http://www.w3.org/2000/svg"
   xmlns:svg="http://www.w3.org/2000/svg">
  <defs
     id="defs8" />
  <sodipodi:namedview
     id="namedview8"
     pagecolor="#ffffff"
     bordercolor="#000000"
     borderopacity="0.25"
     inkscape:showpageshadow="2"
     inkscape:pageopacity="0.0"
     inkscape:pagecheckerboard="0"
     inkscape:deskcolor="#d1d1d1"
     inkscape:zoom="13.75"
     inkscape:cx="20.072727"
     inkscape:cy="20"
     inkscape:window-width="1920"
     inkscape:window-height="963"
     inkscape:window-x="0"
     inkscape:window-y="0"
     inkscape:window-maximized="1"
     inkscape:current-layer="svg8" />
  <!-- Background circle -->
  <circle
     cx="20"
     cy="20"
     r="18"
     stroke="white"
     fill="#F56565"
     stroke-width="2"
     id="circle1" />
  <!-- Slide (scaled and centered from the original design) -->
  <g
     id="g2"
     transform="matrix(0.46637381,0,0,0.45846426,5.0937268,4.9394491)"
     style="fill:#ececec">

<path
   d="m 16.4,19.4 c -1.3,0 -2.3,1 -2.3,2.3 v 4.6 c 0,1.3 1,2.3 2.3,2.3 h 5.7 c 1.3,0 2.3,-1 2.3,-2.3 v -4.6 c 0,-1.3 -1,-2.3 -2.3,-2.3 z m 4.1,5.2 h -2.3 v -1.2 h 2.3 z"
   id="path1"
   style="fill:#ececec" />


<path
   d="m 56.8,47.5 c 0,0 0,0 0,0 -0.1,0 -0.1,-0.1 -0.1,-0.1 -2.6,-1.4 -5,-3 -7.2,-5.1 -2,-2 -3.5,-4.2 -4.8,-6.7 -2.9,-5.1 -7.1,-9.1 -12.4,-11.6 0,-0.7 0,-1.4 0,-2.2 0,-1.6 0,-3.2 0,-4.8 0,0 0,-0.1 0,-0.1 0,0 0,0 0,-0.1 0,-0.6 -0.4,-1.1 -0.8,-1.4 -0.1,-0.1 -0.1,-0.1 -0.2,-0.2 -3.7,-2.6 -7.4,-5.2 -11,-7.7 -0.5,-0.4 -1.5,-0.4 -2,0 -3.7,2.9 -7.3,5.7 -11,8.5 0,0 -0.1,0.1 -0.1,0.1 -0.5,0.3 -0.9,0.8 -0.9,1.6 0,11.2 0,22.4 0,33.6 0,1.6 0,3.2 0,4.8 0,2.6 4,2.6 4,0 0,-1.2 0,-2.5 0,-3.7 h 18 c 0,1.2 0,2.5 0,3.7 0,2.6 4,2.6 4,0 0,-6 0,-11.9 0,-17.9 0.1,0.1 0.2,0.2 0.3,0.4 0.2,0.3 0.2,0.3 0.6,0.8 0.3,0.4 0.6,0.9 0.9,1.4 1.6,2.5 3.2,5.1 5,7.5 2,2.6 4.1,5.2 6.8,7.1 2.9,2.1 6.2,3 9.7,3.1 0.9,0 1.4,-0.4 1.7,-1 0.2,-0.3 0.3,-0.6 0.3,-1 0,-2.1 0,-4.2 0,-6.3 0,-0.3 0,-0.6 0,-0.9 0,0 0,0 0,0 0.1,-0.7 -0.1,-1.3 -0.8,-1.8 z M 10.3,35.7 h 18 c 0,1.4 0,2.9 0,4.3 h -18 c 0,-1.4 0,-2.8 0,-4.3 z m 18,-17.6 c 0,4.5 0,9.1 0,13.6 h -18 c 0,-3.1 0,-6.2 0,-9.2 0,-1.3 0,-2.5 0,-3.8 3,-2.3 6,-4.6 9,-6.8 3,2 6,4.1 9,6.2 z M 10.3,44 h 18 c 0,1.4 0,2.9 0,4.3 h -18 c 0,-1.4 0,-2.8 0,-4.3 z m 31.3,0.8 c -1.6,-2.2 -3,-4.5 -4.5,-6.7 -1.4,-2.1 -3,-3.7 -4.9,-5.3 0,-1.4 0,-2.8 0,-4.1 1.5,0.8 2.9,1.8 4.1,2.9 2.4,2.2 3.9,4.7 5.5,7.5 2.8,4.9 6.9,8.6 11.7,11.4 0,1.3 0,2.5 0,3.8 -2.3,-0.4 -4.3,-1.2 -6.1,-2.7 -2.2,-2 -4.1,-4.4 -5.8,-6.8 z"
   id="path2"
   style="fill:#ececec" />


</g>
</svg>
